<svg
   xmlns:dc="http://purl.org/dc/elements/1.1/"
   xmlns:cc="http://creativecommons.org/ns#"
   xmlns:rdf="http://www.w3.org/1999/02/22-rdf-syntax-ns#"
   xmlns:svg="http://www.w3.org/2000/svg"
   xmlns="http://www.w3.org/2000/svg"
   id="Layer_1"
   data-name="Layer 1"
   viewBox="0 0 255.73 255.47"
   version="1.1">
  <defs
     id="defs894">
    <style
       id="style892">.cls-1{fill:none;}.cls-2{fill:#d2d2d2;}</style>
  </defs>
  <title
     id="title896">wifi0</title>
  <rect
     class="cls-1"
     width="255.73"
     height="255.47"
     id="rect898" />
  <path
     class="cls-2"
     d="M128.73,179.27a20,20,0,1,0,.19,40,20.4,20.4,0,0,0,19.83-20.16A20.1,20.1,0,0,0,128.73,179.27Zm.41,26a6.1,6.1,0,0,1-6-6.18,5.89,5.89,0,0,1,11.77.18A6.09,6.09,0,0,1,129.14,205.23Z"
     transform="translate(0.08 -0.12)"
     id="path900"
     style="fill:#b3b3b3" />
  <path
     class="cls-2"
     d="M255,127.76A126.25,126.25,0,1,0,128.71,254,126.39,126.39,0,0,0,255,127.76Zm-237.5,0A111.2,111.2,0,0,1,212.13,54.25L181.36,77.81a112.94,112.94,0,0,0-48.59-11.33c-37.13-.22-68.51,14.6-96.2,38.33-4,3.41-4.32,8.23-1.24,11.8s8.05,3.7,12.13.1A143.57,143.57,0,0,1,83.62,93.4c28.43-12.81,56.17-14.74,83-4.33l-23.09,17.68a111.72,111.72,0,0,0-14.68-1.29c-1.85,0-3.7-.09-5.54,0-2.08.13-4.16.41-6.23.68a91.59,91.59,0,0,0-52.77,24.9c-3.94,3.75-4.32,8.34-1.13,11.75s7.53,3.21,11.55-.12c2.55-2.13,5.09-4.28,7.8-6.19,13-9.17,27.05-14.77,42.38-15.5L36,189.13A110.63,110.63,0,0,1,17.46,127.76ZM129,239a111,111,0,0,1-83.95-38l41.83-32a8.23,8.23,0,0,0,.86,1.13c2.88,3.19,7,3.56,10.61.88,1.28-1,2.42-2.09,3.69-3.07,10.17-7.9,21.41-11.93,34.42-9.26,8.55,1.76,15.65,6.25,22.17,11.89a7.46,7.46,0,0,0,10.62-.34,7.65,7.65,0,0,0,0-10.7c-9.6-10.33-21.44-15.33-34.59-17a49.89,49.89,0,0,0-12.57.1l-1,.14,25.64-19.63c13.38,3.36,25.11,10.19,35.78,19.3,4.22,3.59,8.69,3.66,11.8.27s2.53-8.21-1.52-12A90.52,90.52,0,0,0,162,111.51l19.82-15.17q3.42,1.93,6.81,4.16c6.14,4,11.75,8.91,17.54,13.5,2.9,2.3,5.95,2.87,9.26,1.25l.09,0a7.71,7.71,0,0,0,3-10.82,13.64,13.64,0,0,0-2-2.66,81.8,81.8,0,0,0-8.15-6.92q-6.24-4.89-12.76-9.06l25.63-19.62A110.64,110.64,0,0,1,239.93,130C238.73,190.18,189.19,238.84,129,239Z"
     transform="translate(0.08 -0.12)"
     id="path902"
     style="fill:#b3b3b3" />
</svg>
