<?xml version="1.0" encoding="UTF-8" standalone="no"?>
<svg
   xmlns:dc="http://purl.org/dc/elements/1.1/"
   xmlns:cc="http://creativecommons.org/ns#"
   xmlns:rdf="http://www.w3.org/1999/02/22-rdf-syntax-ns#"
   xmlns:svg="http://www.w3.org/2000/svg"
   xmlns="http://www.w3.org/2000/svg"
   xmlns:sodipodi="http://sodipodi.sourceforge.net/DTD/sodipodi-0.dtd"
   xmlns:inkscape="http://www.inkscape.org/namespaces/inkscape"
   id="Layer_1"
   data-name="Layer 1"
   viewBox="0 0 255.73 255.47"
   version="1.1"
   sodipodi:docname="EXCELLENT.svg"
   inkscape:version="0.92.5 (2060ec1f9f, 2020-04-08)">
  <metadata
     id="metadata21">
    <rdf:RDF>
      <cc:Work
         rdf:about="">
        <dc:format>image/svg+xml</dc:format>
        <dc:type
           rdf:resource="http://purl.org/dc/dcmitype/StillImage" />
      </cc:Work>
    </rdf:RDF>
  </metadata>
  <sodipodi:namedview
     pagecolor="#ffffff"
     bordercolor="#666666"
     borderopacity="1"
     objecttolerance="10"
     gridtolerance="10"
     guidetolerance="10"
     inkscape:pageopacity="0"
     inkscape:pageshadow="2"
     inkscape:window-width="811"
     inkscape:window-height="764"
     id="namedview19"
     showgrid="false"
     inkscape:zoom="0.92378752"
     inkscape:cx="127.865"
     inkscape:cy="127.735"
     inkscape:window-x="0"
     inkscape:window-y="0"
     inkscape:window-maximized="0"
     inkscape:current-layer="Layer_1" />
  <defs
     id="defs4">
    <style
       id="style2">.cls-1{fill:none;}.cls-2{fill:#9abc22;}</style>
  </defs>
  <title
     id="title6">wifi5</title>
  <rect
     class="cls-1"
     width="255.73"
     height="255.47"
     id="rect8" />
  <path
     class="cls-2"
     d="M252.89,79.65a10.43,10.43,0,0,1-4,14.67l-.11.06c-4.48,2.19-8.61,1.42-12.53-1.69-7.82-6.21-15.41-12.79-23.73-18.26-45.46-29.88-93-31.71-142-9.61A194.31,194.31,0,0,0,21.55,96.35c-5.53,4.87-12.17,4.78-16.41-.13s-3.71-11.35,1.67-16c37.45-32.09,79.9-52.13,130.11-51.84,38.62.23,72.26,14.74,102.31,38.32a111.35,111.35,0,0,1,11,9.36A18.7,18.7,0,0,1,252.89,79.65Z"
     transform="translate(0.08 -0.12)"
     id="path10"
     style="fill:#2185d0;fill-opacity:1" />
  <path
     class="cls-2"
     d="M131.66,81.14c33,.72,62.18,11.34,86.48,34.2,5.47,5.16,6.31,11.64,2.06,16.26s-10.26,4.5-16-.37c-17.45-14.89-37-25.3-60-28.33-27.88-3.66-52.61,4.35-75.2,20.23-3.67,2.58-7.1,5.5-10.56,8.37C53,136,47,136.11,42.84,131.67c-4.3-4.62-3.79-10.83,1.53-15.89C64.44,96.69,88.32,85.63,115.75,82.1c2.8-.36,5.61-.75,8.43-.93C126.66,81,129.17,81.14,131.66,81.14Z"
     transform="translate(0.08 -0.12)"
     id="path12"
     style="fill:#2185d0;fill-opacity:1" />
  <path
     class="cls-2"
     d="M122.39,131.51a68.14,68.14,0,0,1,17.59-.09c17.61,2.26,33.46,9,46.35,22.88a10.35,10.35,0,0,1,0,14.47c-3.88,4-9.82,4.4-14.38.46-8.81-7.62-18.41-13.7-30-16.08-17.59-3.61-32.8,1.84-46.56,12.53-1.71,1.32-3.26,2.85-5,4.14C85.57,173.45,80,173,76.06,168.63c-3.69-4.09-3.76-9.54.24-14,11.24-12.44,25.47-19.48,41.8-22.5C119.52,131.91,120.94,131.7,122.39,131.51Z"
     transform="translate(0.08 -0.12)"
     id="path14"
     style="fill:#2185d0;fill-opacity:1" />
  <path
     class="cls-2"
     d="M131.46,181a27.18,27.18,0,0,1,27.09,26.88c.07,14.58-12.33,27.18-26.83,27.28-14.69.1-27.2-12.12-27.33-26.71A27.28,27.28,0,0,1,131.46,181Zm8.38,27a8,8,0,0,0-15.92-.24,8,8,0,1,0,15.92.24Z"
     transform="translate(0.08 -0.12)"
     id="path16"
     style="fill:#2185d0;fill-opacity:1" />
</svg>
