<?xml version="1.0" encoding="UTF-8" standalone="no"?>
<svg
   xmlns:dc="http://purl.org/dc/elements/1.1/"
   xmlns:cc="http://creativecommons.org/ns#"
   xmlns:rdf="http://www.w3.org/1999/02/22-rdf-syntax-ns#"
   xmlns:svg="http://www.w3.org/2000/svg"
   xmlns="http://www.w3.org/2000/svg"
   xmlns:sodipodi="http://sodipodi.sourceforge.net/DTD/sodipodi-0.dtd"
   xmlns:inkscape="http://www.inkscape.org/namespaces/inkscape"
   id="Layer_1"
   data-name="Layer 1"
   viewBox="0 0 255.73 255.47"
   version="1.1"
   sodipodi:docname="OKAY.svg"
   inkscape:version="0.92.5 (2060ec1f9f, 2020-04-08)">
  <metadata
     id="metadata970">
    <rdf:RDF>
      <cc:Work
         rdf:about="">
        <dc:format>image/svg+xml</dc:format>
        <dc:type
           rdf:resource="http://purl.org/dc/dcmitype/StillImage" />
      </cc:Work>
    </rdf:RDF>
  </metadata>
  <sodipodi:namedview
     pagecolor="#ffffff"
     bordercolor="#666666"
     borderopacity="1"
     objecttolerance="10"
     gridtolerance="10"
     guidetolerance="10"
     inkscape:pageopacity="0"
     inkscape:pageshadow="2"
     inkscape:window-width="1920"
     inkscape:window-height="1043"
     id="namedview968"
     showgrid="false"
     inkscape:zoom="0.92378752"
     inkscape:cx="127.865"
     inkscape:cy="127.735"
     inkscape:window-x="0"
     inkscape:window-y="0"
     inkscape:window-maximized="1"
     inkscape:current-layer="Layer_1" />
  <defs
     id="defs953">
    <style
       id="style951">.cls-1{fill:none;}.cls-2{fill:#d2d2d2;}.cls-3{fill:#9abc22;}</style>
  </defs>
  <title
     id="title955">wifi3</title>
  <rect
     class="cls-1"
     width="255.73"
     height="255.47"
     id="rect957" />
  <path
     class="cls-2"
     d="M251.8,80.14a10.43,10.43,0,0,1-4,14.67l-.11.06c-4.48,2.19-8.61,1.42-12.53-1.69C227.31,87,219.72,80.39,211.4,74.92c-45.46-29.88-93-31.71-142-9.61A194.55,194.55,0,0,0,20.45,96.84c-5.52,4.87-12.16,4.78-16.4-.13s-3.71-11.35,1.67-16C43.17,48.65,85.62,28.61,135.83,28.9c38.62.23,72.26,14.74,102.31,38.32a111.35,111.35,0,0,1,11,9.36A18.7,18.7,0,0,1,251.8,80.14Z"
     transform="translate(0.08 -0.12)"
     id="path959"
     style="fill:#b3b3b3" />
  <path
     class="cls-2"
     d="M130.57,81.63c33,.72,62.18,11.34,86.48,34.2,5.47,5.15,6.31,11.64,2.06,16.26s-10.26,4.49-16-.37c-17.45-14.89-37-25.3-60-28.33-27.88-3.66-52.61,4.35-75.2,20.23-3.67,2.58-7.1,5.5-10.56,8.37-5.42,4.5-11.46,4.61-15.62.17-4.3-4.62-3.79-10.83,1.53-15.89,20.07-19.09,44-30.16,71.38-33.68,2.8-.36,5.61-.75,8.43-.93C125.57,81.51,128.08,81.63,130.57,81.63Z"
     transform="translate(0.08 -0.12)"
     id="path961"
     style="fill:#b3b3b3" />
  <path
     class="cls-3"
     d="M123.27,131.75a56.93,56.93,0,0,1,12.65-.18c18.8,1.86,35.72,8.59,49.32,23.22a10.35,10.35,0,0,1,0,14.47c-3.88,4.05-9.82,4.4-14.38.45-8.81-7.61-18.41-13.7-30-16.07-17.59-3.61-32.8,1.84-46.56,12.53-1.71,1.32-3.26,2.85-5,4.14-4.84,3.63-10.45,3.13-14.35-1.19-3.69-4.09-3.76-9.54.24-14,11.24-12.44,25.47-19.48,41.8-22.5C119.07,132.28,121.15,132,123.27,131.75Z"
     transform="translate(0.08 -0.12)"
     id="path963"
     style="fill:#2185d0;fill-opacity:1" />
  <path
     class="cls-3"
     d="M130.37,181.45a27.2,27.2,0,0,1,27.09,26.89c.07,14.58-12.33,27.18-26.83,27.28-14.69.1-27.2-12.12-27.33-26.71A27.29,27.29,0,0,1,130.37,181.45Zm8.38,27a8,8,0,0,0-15.92-.24,8,8,0,1,0,15.92.24Z"
     transform="translate(0.08 -0.12)"
     id="path965"
     style="fill:#2185d0;fill-opacity:1" />
</svg>
