<?xml version="1.0" encoding="UTF-8" standalone="no"?>
<svg
   xmlns:dc="http://purl.org/dc/elements/1.1/"
   xmlns:cc="http://creativecommons.org/ns#"
   xmlns:rdf="http://www.w3.org/1999/02/22-rdf-syntax-ns#"
   xmlns:svg="http://www.w3.org/2000/svg"
   xmlns="http://www.w3.org/2000/svg"
   xmlns:sodipodi="http://sodipodi.sourceforge.net/DTD/sodipodi-0.dtd"
   xmlns:inkscape="http://www.inkscape.org/namespaces/inkscape"
   id="Layer_1"
   data-name="Layer 1"
   viewBox="0 0 255.73 255.47"
   version="1.1"
   sodipodi:docname="UNUSABLE.svg"
   inkscape:version="0.92.5 (2060ec1f9f, 2020-04-08)">
  <metadata
     id="metadata991">
    <rdf:RDF>
      <cc:Work
         rdf:about="">
        <dc:format>image/svg+xml</dc:format>
        <dc:type
           rdf:resource="http://purl.org/dc/dcmitype/StillImage" />
      </cc:Work>
    </rdf:RDF>
  </metadata>
  <sodipodi:namedview
     pagecolor="#ffffff"
     bordercolor="#666666"
     borderopacity="1"
     objecttolerance="10"
     gridtolerance="10"
     guidetolerance="10"
     inkscape:pageopacity="0"
     inkscape:pageshadow="2"
     inkscape:window-width="1028"
     inkscape:window-height="782"
     id="namedview989"
     showgrid="false"
     inkscape:zoom="0.85839035"
     inkscape:cx="-65.751245"
     inkscape:cy="127.735"
     inkscape:window-x="56"
     inkscape:window-y="100"
     inkscape:window-maximized="0"
     inkscape:current-layer="Layer_1" />
  <defs
     id="defs974">
    <style
       id="style972">.cls-1{fill:none;}.cls-2{fill:#d2d2d2;}</style>
  </defs>
  <title
     id="title976">wifi1</title>
  <rect
     class="cls-1"
     width="255.73"
     height="255.47"
     id="rect978" />
  <path
     class="cls-2"
     d="M254.09,84.41a9.81,9.81,0,0,1-5.86,10.06c-4.48,2.2-8.6,1.43-12.53-1.69C227.88,86.58,220.29,80,212,74.53c-45.47-29.88-93-31.71-142-9.61A194.49,194.49,0,0,0,21,96.45c-5.52,4.86-12.17,4.78-16.41-.13S.91,85,6.3,80.35c37.45-32.1,79.9-52.13,130.11-51.84,38.62.22,72.26,14.73,102.31,38.32a112.39,112.39,0,0,1,11,9.36A16.4,16.4,0,0,1,254.09,84.41Z"
     transform="translate(0.08 -0.12)"
     id="path980"
     style="fill:#b3b3b3" />
  <path
     class="cls-2"
     d="M131.15,81.24c33,.71,62.18,11.34,86.47,34.2,5.48,5.15,6.31,11.64,2.07,16.26s-10.27,4.49-16-.37c-17.44-14.89-37-25.31-60-28.33-27.87-3.66-52.61,4.34-75.19,20.23-3.67,2.58-7.11,5.5-10.56,8.37-5.43,4.5-11.47,4.61-15.62.16-4.31-4.61-3.79-10.82,1.53-15.88,20.07-19.09,44-30.16,71.37-33.69,2.81-.36,5.61-.74,8.43-.92C126.15,81.12,128.65,81.24,131.15,81.24Z"
     transform="translate(0.08 -0.12)"
     id="path982"
     style="fill:#b3b3b3" />
  <path
     class="cls-2"
     d="M129.21,130.69c21.71.76,41.26,7.21,56.6,23.7a10.36,10.36,0,0,1,0,14.48c-3.88,4-9.81,4.39-14.37.45-8.81-7.62-18.42-13.7-30-16.07-17.59-3.61-32.79,1.83-46.55,12.52-1.71,1.33-3.26,2.86-5,4.15-4.85,3.62-10.45,3.13-14.35-1.19-3.7-4.09-3.76-9.54.23-14,11.25-12.44,25.47-19.48,41.81-22.49C121.34,131.58,125.16,131.23,129.21,130.69Z"
     transform="translate(0.08 -0.12)"
     id="path984"
     style="fill:#b3b3b3" />
  <path
     class="cls-2"
     d="M131,181.06A27.18,27.18,0,0,1,158,208c.07,14.58-12.32,27.18-26.83,27.28-14.69.09-27.19-12.13-27.33-26.71A27.3,27.3,0,0,1,131,181.06Zm8.38,27a8,8,0,0,0-15.92-.24,8,8,0,1,0,15.92.24Z"
     transform="translate(0.08 -0.12)"
     id="path986"
     style="fill:#b3b3b3" />
</svg>
