<?xml version="1.0" encoding="UTF-8" standalone="no"?>
<svg
   xmlns:dc="http://purl.org/dc/elements/1.1/"
   xmlns:cc="http://creativecommons.org/ns#"
   xmlns:rdf="http://www.w3.org/1999/02/22-rdf-syntax-ns#"
   xmlns:svg="http://www.w3.org/2000/svg"
   xmlns="http://www.w3.org/2000/svg"
   xmlns:sodipodi="http://sodipodi.sourceforge.net/DTD/sodipodi-0.dtd"
   xmlns:inkscape="http://www.inkscape.org/namespaces/inkscape"
   id="Layer_1"
   data-name="Layer 1"
   viewBox="0 0 255.73 255.47"
   version="1.1"
   sodipodi:docname="WEAK.svg"
   inkscape:version="0.92.5 (2060ec1f9f, 2020-04-08)">
  <metadata
     id="metadata4714">
    <rdf:RDF>
      <cc:Work
         rdf:about="">
        <dc:format>image/svg+xml</dc:format>
        <dc:type
           rdf:resource="http://purl.org/dc/dcmitype/StillImage" />
      </cc:Work>
    </rdf:RDF>
  </metadata>
  <sodipodi:namedview
     pagecolor="#ffffff"
     bordercolor="#666666"
     borderopacity="1"
     objecttolerance="10"
     gridtolerance="10"
     guidetolerance="10"
     inkscape:pageopacity="0"
     inkscape:pageshadow="2"
     inkscape:window-width="765"
     inkscape:window-height="398"
     id="namedview4712"
     showgrid="false"
     inkscape:zoom="0.67893875"
     inkscape:cx="223.77622"
     inkscape:cy="173.29702"
     inkscape:window-x="1001"
     inkscape:window-y="369"
     inkscape:window-maximized="0"
     inkscape:current-layer="Layer_1" />
  <defs
     id="defs4697">
    <style
       id="style4695">.cls-1{fill:none;}.cls-2{fill:#d2d2d2;}.cls-3{fill:#9abc22;}</style>
  </defs>
  <title
     id="title4699">wifi2</title>
  <rect
     class="cls-1"
     width="255.73"
     height="255.47"
     id="rect4701" />
  <path
     class="cls-2"
     d="M252.21,79.91a10.43,10.43,0,0,1-4,14.67l-.11.06c-4.48,2.19-8.61,1.42-12.53-1.69-7.82-6.21-15.41-12.79-23.73-18.26-45.46-29.88-93-31.71-142-9.61A194.55,194.55,0,0,0,20.86,96.61c-5.52,4.87-12.16,4.78-16.4-.13s-3.71-11.35,1.67-16C43.58,48.42,86,28.38,136.24,28.67,174.86,28.9,208.5,43.41,238.55,67a111.35,111.35,0,0,1,11,9.36A18.7,18.7,0,0,1,252.21,79.91Z"
     transform="translate(0.08 -0.12)"
     id="path4703"
     style="fill:#b3b3b3" />
  <path
     class="cls-2"
     d="M131,81.4c33,.72,62.18,11.34,86.48,34.2,5.47,5.16,6.31,11.64,2.06,16.26s-10.26,4.5-16-.37c-17.45-14.89-37-25.3-60-28.33-27.88-3.66-52.61,4.35-75.2,20.23-3.67,2.58-7.1,5.5-10.56,8.37-5.42,4.51-11.46,4.61-15.62.17-4.3-4.62-3.79-10.83,1.53-15.89,20.07-19.09,44-30.15,71.38-33.68,2.8-.36,5.61-.75,8.43-.93C126,81.28,128.49,81.4,131,81.4Z"
     transform="translate(0.08 -0.12)"
     id="path4705"
     style="fill:#b3b3b3" />
  <path
     class="cls-2"
     d="M129.05,130.86c21.7.76,41.26,7.2,56.6,23.7a10.35,10.35,0,0,1,0,14.47c-3.88,4.05-9.82,4.4-14.38.46-8.81-7.62-18.41-13.7-30-16.08-17.59-3.61-32.8,1.84-46.56,12.53-1.71,1.32-3.26,2.85-5,4.14-4.84,3.63-10.45,3.13-14.35-1.19-3.69-4.09-3.76-9.54.24-14,11.24-12.44,25.47-19.48,41.8-22.5C121.17,131.74,125,131.4,129.05,130.86Z"
     transform="translate(0.08 -0.12)"
     id="path4707"
     style="fill:#b3b3b3" />
  <path
     class="cls-3"
     d="M130.78,181.23a27.18,27.18,0,0,1,27.09,26.88c.07,14.58-12.33,27.18-26.83,27.28-14.69.1-27.2-12.12-27.33-26.71A27.28,27.28,0,0,1,130.78,181.23Zm8.38,27a8,8,0,0,0-15.92-.24,8,8,0,1,0,15.92.24Z"
     transform="translate(0.08 -0.12)"
     id="path4709"
     style="opacity:0.99;fill:#2185d0;fill-opacity:1" />
</svg>
