<svg id="Outline" height="512" viewBox="0 0 512 512" width="512" xmlns="http://www.w3.org/2000/svg"><path d="m137.178 303.914a8 8 0 0 0 11.371-11.257 154.785 154.785 0 0 1 0-217.315 8 8 0 0 0 -11.371-11.257 170.787 170.787 0 0 0 0 239.829z"/><path d="m363.509 303.972a8 8 0 0 0 11.313-.057 170.789 170.789 0 0 0 0-239.83 8 8 0 0 0 -11.371 11.257 154.787 154.787 0 0 1 0 217.316 8 8 0 0 0 .058 11.314z"/><path d="m97.608 352a8 8 0 0 0 5.686-13.628 219.9 219.9 0 0 1 0-308.744 8 8 0 1 0 -11.371-11.256 235.9 235.9 0 0 0 0 331.256 7.972 7.972 0 0 0 5.685 2.372z"/><path d="m472 184a218.006 218.006 0 0 1 -63.294 154.372 8 8 0 1 0 11.371 11.256 235.9 235.9 0 0 0 0-331.256 8 8 0 1 0 -11.371 11.256 218.006 218.006 0 0 1 63.294 154.372z"/><path d="m188.118 260.572a8 8 0 0 0 5.686-13.629 89.67 89.67 0 0 1 0-125.886 8 8 0 0 0 -11.371-11.257 105.672 105.672 0 0 0 0 148.4 7.977 7.977 0 0 0 5.685 2.372z"/><path d="m318.255 258.257a8 8 0 0 0 11.313-.057 105.674 105.674 0 0 0 0-148.4 8 8 0 0 0 -11.368 11.256 89.674 89.674 0 0 1 0 125.888 8 8 0 0 0 .055 11.313z"/><path d="m408 384h-144v-160.8a40 40 0 1 0 -16 0v160.8h-144a72.081 72.081 0 0 0 -72 72v32a8 8 0 0 0 8 8h432a8 8 0 0 0 8-8v-32a72.081 72.081 0 0 0 -72-72zm-176-200a24 24 0 1 1 24 24 24.028 24.028 0 0 1 -24-24zm232 296h-416v-24a56.063 56.063 0 0 1 56-56h304a56.063 56.063 0 0 1 56 56z"/><circle cx="256" cy="440" r="8"/><circle cx="288" cy="440" r="8"/><circle cx="320" cy="440" r="8"/><circle cx="224" cy="440" r="8"/><circle cx="192" cy="440" r="8"/></svg>