<?xml version="1.0" encoding="iso-8859-1"?>
<!-- Generator: Adobe Illustrator 19.0.0, SVG Export Plug-In . SVG Version: 6.00 Build 0)  -->
<svg version="1.1" id="Layer_1" xmlns="http://www.w3.org/2000/svg" xmlns:xlink="http://www.w3.org/1999/xlink" x="0px" y="0px"
	 viewBox="0 0 512 512" style="enable-background:new 0 0 512 512;" xml:space="preserve">
<g>
	<g>
		<g>
			<path d="M411.546,92.369H100.453c-4.466,0-8.084,3.618-8.084,8.084v311.092c0,4.466,3.618,8.084,8.084,8.084h228.114
				c4.466,0,8.084-3.619,8.084-8.084s-3.618-8.084-8.084-8.084h-220.03V108.538h294.924v294.924h-45.792
				c-4.466,0-8.084,3.619-8.084,8.084s3.618,8.084,8.084,8.084h53.876c4.466,0,8.084-3.619,8.084-8.084V100.453
				C419.63,95.989,416.011,92.369,411.546,92.369z"/>
			<path d="M503.915,295.084c4.466,0,8.084-3.618,8.084-8.084c0-4.466-3.618-8.084-8.084-8.084h-46.557v-45.83h46.557
				c4.466,0,8.084-3.618,8.084-8.084c0-4.466-3.618-8.084-8.084-8.084h-46.557v-45.832h46.556v0.001
				c4.466,0,8.084-3.619,8.084-8.084c0-4.466-3.618-8.084-8.084-8.084h-46.557v-45.83h46.557c4.466,0,8.084-3.619,8.084-8.084
				s-3.618-8.084-8.084-8.084h-46.563c-0.104-21.059-17.213-38.169-38.272-38.272V8.084c0-4.466-3.619-8.084-8.084-8.084
				c-4.465,0-8.084,3.619-8.084,8.084v46.559h-45.829V8.084c0-4.466-3.62-8.084-8.084-8.084c-4.466,0-8.084,3.619-8.084,8.084
				v46.559h-45.831V8.084c0-4.466-3.619-8.084-8.084-8.084s-8.084,3.619-8.084,8.084v46.559h-45.83V8.084
				C233.084,3.619,229.466,0,225,0s-8.084,3.619-8.084,8.084v46.559h-45.83V8.084c0-4.466-3.619-8.084-8.084-8.084
				s-8.084,3.619-8.084,8.084v46.559h-45.83V8.084c0-4.466-3.619-8.084-8.084-8.084s-8.084,3.619-8.084,8.084v46.564
				c-21.06,0.102-38.17,17.213-38.273,38.272H8.085c-4.466,0-8.084,3.619-8.084,8.084s3.618,8.084,8.084,8.084h46.557v45.83H8.085
				c-4.466,0-8.084,3.618-8.084,8.084c0,4.466,3.618,8.084,8.084,8.084h46.557v45.832H8.085c-4.466,0-8.084,3.619-8.084,8.084
				c0,4.466,3.618,8.084,8.084,8.084h46.557v45.83H8.085c-4.466,0-8.084,3.619-8.084,8.084c0,4.466,3.618,8.084,8.084,8.084h46.557
				v45.83H8.085c-4.466,0-8.084,3.619-8.084,8.084c0,4.466,3.618,8.084,8.084,8.084h46.557v45.83H8.085
				c-4.466,0-8.084,3.619-8.084,8.084c0,4.466,3.618,8.084,8.084,8.084h46.563c0.103,21.06,17.214,38.169,38.273,38.272v46.562
				c0,4.466,3.618,8.084,8.084,8.084c4.466,0,8.084-3.618,8.084-8.084v-46.559h45.83v46.559c0,4.466,3.618,8.084,8.084,8.084
				c4.466,0,8.084-3.618,8.084-8.084v-46.559h45.83v46.559c0,4.466,3.618,8.084,8.084,8.084c4.466,0,8.084-3.618,8.084-8.084
				v-46.559h45.83v46.559c0,4.466,3.618,8.084,8.084,8.084c4.466,0,8.084-3.618,8.084-8.084v-46.559h45.831v46.559
				c0,4.466,3.619,8.084,8.084,8.084c4.465,0,8.084-3.618,8.084-8.084v-46.559h45.829v46.559c0,4.466,3.62,8.084,8.084,8.084
				c4.466,0,8.084-3.618,8.084-8.084v-46.564c21.059-0.104,38.169-17.213,38.272-38.272h46.563c4.466,0,8.084-3.619,8.084-8.084
				s-3.618-8.084-8.084-8.084h-46.557v-45.83h46.557c4.466,0,8.084-3.619,8.084-8.084s-3.618-8.084-8.084-8.084h-46.557v-45.829
				H503.915z M418.889,441.189h-69.873c-0.006,0-0.012-0.001-0.018-0.001c-0.007,0-0.012,0.001-0.018,0.001h-61.963
				c-0.007,0-0.012-0.001-0.018-0.001s-0.012,0.001-0.018,0.001h-61.962c-0.006,0-0.012-0.001-0.018-0.001s-0.012,0.001-0.018,0.001
				h-61.962c-0.006,0-0.012-0.001-0.018-0.001s-0.012,0.001-0.018,0.001h-61.96c-0.006,0-0.012-0.001-0.018-0.001
				c-0.006,0-0.012,0.001-0.018,0.001H93.11c-12.296,0-22.299-10.003-22.299-22.299V93.111c0-12.296,10.003-22.299,22.299-22.299
				h7.874c0.008,0,0.014,0.001,0.02,0.001c0.006,0,0.014-0.001,0.021-0.001h61.956c0.008,0,0.014,0.001,0.021,0.001
				c0.006,0,0.014-0.001,0.02-0.001h61.956c0.008,0,0.014,0.001,0.021,0.001s0.014-0.001,0.02-0.001h61.956
				c0.008,0,0.014,0.001,0.021,0.001s0.014-0.001,0.021-0.001h61.957c0.008,0,0.014,0.001,0.021,0.001
				c0.006,0,0.014-0.001,0.02-0.001h69.87c12.296,0,22.299,10.003,22.299,22.299v325.779h0.003
				C441.188,431.185,431.185,441.189,418.889,441.189z"/>
			<path d="M354.241,162.817c4.466,0,8.084-3.618,8.084-8.084c0-4.466-3.618-8.084-8.084-8.084h-4.654
				c-4.466,0-8.084,3.618-8.084,8.084c0,4.466,3.618,8.084,8.084,8.084H354.241z"/>
			<path d="M322.099,146.649H157.758c-4.466,0-8.084,3.618-8.084,8.084c0,4.466,3.618,8.084,8.084,8.084h164.341
				c4.466,0,8.084-3.618,8.084-8.084C330.183,150.267,326.565,146.649,322.099,146.649z"/>
			<path d="M354.241,232.161h-4.654c-4.466,0-8.084,3.618-8.084,8.084c0,4.466,3.618,8.084,8.084,8.084h4.654
				c4.466,0,8.084-3.618,8.084-8.084C362.325,235.78,358.706,232.161,354.241,232.161z"/>
			<path d="M330.183,240.245c0-4.466-3.618-8.084-8.084-8.084H157.758c-4.466,0-8.084,3.618-8.084,8.084
				c0,4.466,3.618,8.084,8.084,8.084h164.341C326.565,248.33,330.183,244.71,330.183,240.245z"/>
			<path d="M157.758,205.574h4.654c4.466,0,8.084-3.618,8.084-8.084c0-4.466-3.618-8.084-8.084-8.084h-4.654
				c-4.466,0-8.084,3.618-8.084,8.084C149.674,201.955,153.293,205.574,157.758,205.574z"/>
			<path d="M181.815,197.49c0,4.466,3.619,8.084,8.084,8.084h164.341c4.466,0,8.084-3.618,8.084-8.084
				c0-4.466-3.618-8.084-8.084-8.084H189.9C185.434,189.406,181.815,193.024,181.815,197.49z"/>
			<path d="M157.758,314.637c-4.466,0-8.084,3.619-8.084,8.084s3.618,8.084,8.084,8.084h5.244c4.466,0,8.084-3.619,8.084-8.084
				s-3.619-8.084-8.084-8.084H157.758z"/>
			<path d="M196.615,314.637c-4.466,0-8.084,3.619-8.084,8.084s3.619,8.084,8.084,8.084h5.244c4.466,0,8.084-3.619,8.084-8.084
				s-3.618-8.084-8.084-8.084H196.615z"/>
			<path d="M235.473,314.637c-4.466,0-8.084,3.619-8.084,8.084s3.618,8.084,8.084,8.084h5.245c4.466,0,8.084-3.619,8.084-8.084
				s-3.619-8.084-8.084-8.084H235.473z"/>
			<path d="M362.325,344.332v-43.221c0-11.59-9.429-21.019-21.019-21.019h-43.221c-11.59,0-21.019,9.429-21.019,21.019v43.221
				c0,11.59,9.429,21.019,21.019,21.019h43.221C352.896,365.351,362.325,355.922,362.325,344.332z M346.157,344.332
				c0,2.674-2.175,4.851-4.851,4.851h-43.221c-2.674,0-4.851-2.176-4.851-4.851v-43.221c0-2.674,2.176-4.851,4.851-4.851h43.221
				c2.675,0,4.851,2.176,4.851,4.851V344.332z"/>
		</g>
	</g>
</g>
<g>
</g>
<g>
</g>
<g>
</g>
<g>
</g>
<g>
</g>
<g>
</g>
<g>
</g>
<g>
</g>
<g>
</g>
<g>
</g>
<g>
</g>
<g>
</g>
<g>
</g>
<g>
</g>
<g>
</g>
</svg>
