<?xml version="1.0" encoding="UTF-8" ?>
<!DOCTYPE svg PUBLIC "-//W3C//DTD SVG 1.1//EN" "http://www.w3.org/Graphics/SVG/1.1/DTD/svg11.dtd">
<svg width="539pt" height="539pt" viewBox="0 0 539 539" version="1.1" xmlns="http://www.w3.org/2000/svg">
<g id="#ffffffff">
<path fill="#ffffff" opacity="1.00" d=" M 407.41 142.04 C 410.51 141.95 413.61 141.93 416.71 141.98 C 416.69 156.97 416.67 171.97 416.72 186.97 C 414.48 186.99 412.22 187.13 409.99 186.84 C 408.85 186.10 408.54 184.61 407.82 183.53 C 404.75 185.92 401.04 187.86 397.01 187.22 C 392.47 187.01 389.23 183.07 387.92 179.03 C 385.54 172.07 386.55 163.27 392.36 158.26 C 396.61 154.68 402.90 155.04 407.51 157.75 C 407.41 152.51 407.47 147.28 407.41 142.04 M 396.58 169.08 C 396.47 172.76 395.80 177.45 399.07 180.03 C 402.02 181.29 405.09 179.97 407.46 178.15 C 407.40 173.63 407.41 169.11 407.58 164.59 C 405.97 163.42 404.24 162.05 402.11 162.39 C 398.62 162.28 396.66 166.03 396.58 169.08 Z" />
<path fill="#ffffff" opacity="1.00" d=" M 114.32 143.03 C 117.72 143.00 121.13 143.01 124.53 143.05 C 124.47 155.03 124.50 167.02 124.51 179.00 C 129.91 179.00 135.32 178.99 140.72 179.03 C 140.71 181.68 140.71 184.33 140.71 186.98 C 131.92 187.01 123.13 187.01 114.33 186.98 C 114.35 172.33 114.36 157.68 114.32 143.03 Z" />
<path fill="#ffffff" opacity="1.00" d=" M 179.66 143.00 C 188.25 143.36 197.37 141.71 205.44 145.45 C 212.05 148.49 213.18 157.71 209.52 163.42 C 208.07 165.78 205.58 167.15 203.28 168.54 C 208.44 173.88 211.43 180.81 215.51 186.93 C 212.01 186.96 208.49 187.25 205.02 186.79 C 203.47 186.69 202.84 185.13 202.07 184.04 C 199.44 179.57 197.09 174.94 194.17 170.64 C 192.73 170.64 191.29 170.64 189.86 170.65 C 189.84 176.10 189.84 181.54 189.85 186.99 C 186.45 187.00 183.06 187.00 179.67 186.99 C 179.66 172.33 179.65 157.67 179.66 143.00 M 189.86 150.94 C 189.84 155.29 189.84 159.64 189.86 163.99 C 193.26 163.90 197.13 164.28 199.93 161.91 C 202.09 159.48 202.54 155.28 200.06 152.90 C 197.26 150.44 193.28 151.08 189.86 150.94 Z" />
<path fill="#ffffff" opacity="1.00" d=" M 258.03 147.77 C 267.42 140.80 281.30 141.19 290.24 148.76 C 288.62 150.65 287.53 153.48 285.11 154.39 C 281.89 153.62 278.93 151.99 275.66 151.42 C 270.84 150.70 265.37 152.56 262.87 156.95 C 258.35 164.12 260.60 175.94 269.24 178.80 C 272.91 180.36 276.89 179.26 280.56 178.33 C 280.52 175.91 280.51 173.50 280.52 171.09 C 278.46 170.98 276.40 170.87 274.34 170.75 C 274.28 168.48 274.23 166.21 274.18 163.94 C 279.39 163.88 284.60 163.88 289.81 163.94 C 289.83 170.25 289.80 176.55 289.81 182.86 C 280.44 188.66 267.30 189.25 258.23 182.52 C 247.93 174.00 247.57 156.30 258.03 147.77 Z" />
<path fill="#ffffff" opacity="1.00" d=" M 151.47 156.64 C 157.81 154.61 165.89 155.16 170.47 160.54 C 176.68 167.82 175.21 180.84 166.48 185.50 C 159.31 189.00 148.98 187.78 144.52 180.58 C 139.69 172.65 142.00 159.94 151.47 156.64 M 154.41 163.47 C 150.98 166.53 151.71 171.90 152.30 175.99 C 153.02 181.24 161.36 182.21 163.48 177.50 C 164.99 173.93 164.85 169.73 163.80 166.06 C 162.58 162.24 157.43 161.32 154.41 163.47 Z" />
<path fill="#ffffff" opacity="1.00" d=" M 220.10 160.45 C 224.84 156.06 231.85 154.68 238.04 156.10 C 242.88 157.26 246.11 162.14 246.16 166.99 C 246.34 173.68 246.13 180.39 246.21 187.09 C 243.95 186.95 241.69 186.84 239.44 186.75 C 239.00 185.74 238.56 184.73 238.12 183.73 C 234.12 186.76 228.84 188.43 223.93 186.70 C 218.36 185.03 216.84 176.92 221.05 173.07 C 225.43 169.13 231.65 168.62 237.26 168.20 C 236.83 166.51 236.86 164.63 235.84 163.16 C 231.58 160.92 227.37 164.42 223.07 164.66 C 222.08 163.25 221.09 161.85 220.10 160.45 M 227.58 178.02 C 227.43 183.15 234.84 182.03 236.74 178.77 C 237.01 177.12 237.06 175.44 237.17 173.77 C 233.82 174.27 228.38 173.56 227.58 178.02 Z" />
<path fill="#ffffff" opacity="1.00" d=" M 295.75 155.90 C 298.76 155.91 301.77 155.93 304.78 155.96 C 304.78 161.65 304.77 167.34 304.73 173.03 C 304.76 175.53 304.66 178.56 306.98 180.17 C 309.57 180.85 312.55 180.38 314.44 178.36 C 315.20 170.92 314.50 163.39 314.75 155.92 C 317.87 155.91 320.99 155.91 324.11 155.91 C 324.13 166.27 324.12 176.63 324.11 186.98 C 321.72 186.99 319.33 187.00 316.94 187.01 C 316.45 185.99 315.97 184.97 315.49 183.95 C 312.40 185.98 308.89 187.84 305.05 187.24 C 300.14 187.15 296.12 182.76 295.95 177.95 C 295.43 170.61 295.87 163.24 295.75 155.90 Z" />
<path fill="#ffffff" opacity="1.00" d=" M 330.73 160.22 C 335.80 156.23 342.59 154.66 348.88 156.18 C 353.57 157.40 356.83 162.16 356.71 166.94 C 356.80 173.63 356.65 180.33 356.73 187.03 C 353.55 187.19 350.04 187.37 348.48 184.02 C 344.24 187.05 338.56 188.45 333.64 186.29 C 328.59 183.83 328.00 175.85 332.43 172.51 C 336.94 169.06 342.83 168.59 348.28 168.18 C 347.70 166.33 347.60 164.06 345.92 162.79 C 342.49 161.52 339.21 163.49 335.97 164.33 C 333.20 165.33 332.19 161.84 330.73 160.22 M 340.12 175.09 C 337.88 176.19 337.37 180.51 340.10 181.25 C 342.33 182.38 344.82 180.97 346.65 179.69 C 348.57 178.39 347.62 175.70 348.06 173.77 C 345.41 174.11 342.54 173.82 340.12 175.09 Z" />
<path fill="#ffffff" opacity="1.00" d=" M 363.76 155.87 C 366.14 155.91 368.55 155.84 370.92 156.24 C 371.64 157.63 372.09 159.15 372.64 160.63 C 374.10 159.11 375.45 157.37 377.35 156.37 C 379.53 155.29 382.04 155.85 384.37 155.85 C 383.93 158.60 383.60 161.39 382.65 164.03 C 379.10 164.15 374.24 163.80 372.96 168.08 C 372.45 174.36 372.94 180.67 372.80 186.97 C 369.78 186.98 366.76 186.99 363.75 187.00 C 363.73 176.62 363.73 166.24 363.76 155.87 Z" />
<path fill="#ffffff" opacity="1.00" d=" M 171.57 255.54 C 197.83 240.84 227.94 233.23 258.03 233.46 C 303.80 233.47 349.04 252.58 381.25 285.04 C 376.59 289.81 371.86 294.51 367.12 299.19 C 338.49 270.58 298.57 253.56 258.02 253.56 C 216.74 253.02 175.79 269.98 146.71 299.21 C 141.82 294.62 137.17 289.78 132.40 285.08 C 144.07 273.55 157.21 263.49 171.57 255.54 Z" />
<path fill="#ffffff" opacity="1.00" d=" M 161.09 313.24 C 186.20 287.57 222.16 273.08 258.03 273.52 C 293.35 273.56 328.07 288.40 353.01 313.30 C 348.25 317.81 344.07 322.96 338.91 327.02 C 336.62 325.79 334.82 323.86 332.90 322.15 C 312.45 304.01 285.31 293.82 258.00 293.60 C 227.20 293.14 196.69 305.80 174.95 327.55 C 170.40 322.72 165.10 318.54 161.09 313.24 Z" />
<path fill="#ffffff" opacity="1.00" d=" M 213.78 323.80 C 229.26 315.87 246.94 312.64 264.25 313.80 C 286.91 315.51 308.68 325.66 324.76 341.69 C 319.95 346.34 315.30 351.16 310.48 355.81 C 296.60 342.15 277.52 333.77 257.96 333.75 C 237.64 333.20 217.61 341.68 203.22 355.90 C 198.50 351.11 193.68 346.42 189.00 341.60 C 196.42 334.60 204.61 328.34 213.78 323.80 Z" />
<path fill="#ffffff" opacity="1.00" d=" M 240.40 368.97 C 241.60 360.57 249.54 354.06 257.93 353.95 C 268.58 353.81 277.76 364.32 275.72 374.86 C 274.39 383.40 266.52 389.89 257.97 390.13 C 247.36 389.97 238.23 379.58 240.40 368.97 Z" />
</g>
<g id="#00a2d3ff">
<path fill="#00a2d3" opacity="1.00" d=" M 252.26 20.33 C 259.94 18.52 267.97 21.12 273.79 26.25 C 290.21 40.13 308.08 52.46 327.70 61.37 C 355.90 74.70 386.99 81.31 418.09 82.17 C 425.05 83.01 432.17 82.53 439.00 84.25 C 448.25 86.98 455.70 96.17 455.15 106.01 C 455.18 121.31 453.24 136.52 452.80 151.80 C 450.97 174.56 450.94 197.47 447.41 220.07 C 437.93 284.94 407.21 346.50 360.93 392.95 C 347.74 406.48 332.94 418.28 318.84 430.82 C 303.52 444.13 288.21 457.46 272.89 470.77 C 268.31 474.76 262.16 476.86 256.09 476.46 C 250.00 476.17 244.41 472.99 240.11 468.82 C 224.69 455.24 209.08 441.88 193.61 428.36 C 177.14 413.88 159.92 400.09 145.45 383.52 C 103.20 337.36 75.60 278.03 67.39 216.00 C 65.27 201.10 64.54 186.05 63.91 171.02 C 62.39 152.05 61.75 133.02 60.19 114.05 C 59.95 110.10 59.77 106.12 60.20 102.18 C 61.83 93.96 68.13 86.82 76.11 84.29 C 82.56 82.47 89.34 83.07 95.92 82.18 C 119.69 81.42 143.50 77.89 166.02 70.05 C 191.22 61.51 214.72 48.18 235.29 31.32 C 240.64 27.26 245.55 22.04 252.26 20.33 M 250.52 40.49 C 231.37 56.65 209.94 70.19 186.76 79.78 C 162.47 90.15 136.32 95.90 110.01 97.74 C 103.31 97.88 96.68 98.97 89.98 98.92 C 86.98 99.02 83.88 98.99 81.02 100.00 C 78.14 100.93 76.25 104.00 76.47 106.98 C 77.17 123.69 78.87 140.32 79.42 157.04 C 81.39 181.69 81.34 206.61 86.43 230.90 C 93.93 269.95 109.34 307.51 131.73 340.40 C 138.36 351.37 146.25 361.60 155.24 370.74 C 169.76 387.87 187.28 402.03 204.11 416.78 C 219.99 430.60 235.90 444.37 251.74 458.23 C 253.58 459.86 255.74 461.05 257.87 462.25 C 260.24 461.76 262.67 461.12 264.48 459.40 C 279.79 446.04 295.13 432.71 310.45 419.36 C 324.93 406.57 340.03 394.41 353.35 380.37 C 358.43 374.75 364.03 369.61 368.66 363.60 C 396.75 329.06 417.47 288.41 427.83 245.06 C 433.74 222.18 435.78 198.54 436.86 175.00 C 438.20 154.02 439.39 133.03 440.56 112.06 C 441.50 108.16 441.61 103.59 438.28 100.75 C 434.04 98.08 428.75 99.10 424.01 98.69 C 411.68 97.57 399.25 97.39 387.04 95.24 C 344.38 89.18 303.81 70.61 270.65 43.23 C 266.75 40.08 263.04 36.56 258.23 34.84 L 258.21 35.93 C 255.37 36.93 252.74 38.43 250.52 40.49 Z" />
</g>
<g id="#5ccae4ff">
<path fill="#5ccae4" opacity="1.00" d=" M 250.52 40.49 C 252.74 38.43 255.37 36.93 258.21 35.93 C 258.05 73.21 258.18 110.49 258.03 147.77 C 247.57 156.30 247.93 174.00 258.23 182.52 C 257.85 199.49 258.08 216.48 258.03 233.46 C 227.94 233.23 197.83 240.84 171.57 255.54 C 157.21 263.49 144.07 273.55 132.40 285.08 C 137.17 289.78 141.82 294.62 146.71 299.21 C 175.79 269.98 216.74 253.02 258.02 253.56 C 257.98 260.21 257.98 266.87 258.03 273.52 C 222.16 273.08 186.20 287.57 161.09 313.24 C 165.10 318.54 170.40 322.72 174.95 327.55 C 196.69 305.80 227.20 293.14 258.00 293.60 C 257.92 300.02 257.90 306.43 257.99 312.85 C 260.07 313.18 262.16 313.53 264.25 313.80 C 246.94 312.64 229.26 315.87 213.78 323.80 C 204.61 328.34 196.42 334.60 189.00 341.60 C 193.68 346.42 198.50 351.11 203.22 355.90 C 217.61 341.68 237.64 333.20 257.96 333.75 C 257.87 340.48 257.88 347.21 257.93 353.95 C 249.54 354.06 241.60 360.57 240.40 368.97 C 238.23 379.58 247.36 389.97 257.97 390.13 C 257.75 414.17 257.86 438.21 257.87 462.25 C 255.74 461.05 253.58 459.86 251.74 458.23 C 235.90 444.37 219.99 430.60 204.11 416.78 C 187.28 402.03 169.76 387.87 155.24 370.74 C 146.25 361.60 138.36 351.37 131.73 340.40 C 109.34 307.51 93.93 269.95 86.43 230.90 C 81.34 206.61 81.39 181.69 79.42 157.04 C 78.87 140.32 77.17 123.69 76.47 106.98 C 76.25 104.00 78.14 100.93 81.02 100.00 C 83.88 98.99 86.98 99.02 89.98 98.92 C 96.68 98.97 103.31 97.88 110.01 97.74 C 136.32 95.90 162.47 90.15 186.76 79.78 C 209.94 70.19 231.37 56.65 250.52 40.49 M 114.32 143.03 C 114.36 157.68 114.35 172.33 114.33 186.98 C 123.13 187.01 131.92 187.01 140.71 186.98 C 140.71 184.33 140.71 181.68 140.72 179.03 C 135.32 178.99 129.91 179.00 124.51 179.00 C 124.50 167.02 124.47 155.03 124.53 143.05 C 121.13 143.01 117.72 143.00 114.32 143.03 M 179.66 143.00 C 179.65 157.67 179.66 172.33 179.67 186.99 C 183.06 187.00 186.45 187.00 189.85 186.99 C 189.84 181.54 189.84 176.10 189.86 170.65 C 191.29 170.64 192.73 170.64 194.17 170.64 C 197.09 174.94 199.44 179.57 202.07 184.04 C 202.84 185.13 203.47 186.69 205.02 186.79 C 208.49 187.25 212.01 186.96 215.51 186.93 C 211.43 180.81 208.44 173.88 203.28 168.54 C 205.58 167.15 208.07 165.78 209.52 163.42 C 213.18 157.71 212.05 148.49 205.44 145.45 C 197.37 141.71 188.25 143.36 179.66 143.00 M 151.47 156.64 C 142.00 159.94 139.69 172.65 144.52 180.58 C 148.98 187.78 159.31 189.00 166.48 185.50 C 175.21 180.84 176.68 167.82 170.47 160.54 C 165.89 155.16 157.81 154.61 151.47 156.64 M 220.10 160.45 C 221.09 161.85 222.08 163.25 223.07 164.66 C 227.37 164.42 231.58 160.92 235.84 163.16 C 236.86 164.63 236.83 166.51 237.26 168.20 C 231.65 168.62 225.43 169.13 221.05 173.07 C 216.84 176.92 218.36 185.03 223.93 186.70 C 228.84 188.43 234.12 186.76 238.12 183.73 C 238.56 184.73 239.00 185.74 239.44 186.75 C 241.69 186.84 243.95 186.95 246.21 187.09 C 246.13 180.39 246.34 173.68 246.16 166.99 C 246.11 162.14 242.88 157.26 238.04 156.10 C 231.85 154.68 224.84 156.06 220.10 160.45 Z" />
<path fill="#5ccae4" opacity="1.00" d=" M 189.86 150.94 C 193.28 151.08 197.26 150.44 200.06 152.90 C 202.54 155.28 202.09 159.48 199.93 161.91 C 197.13 164.28 193.26 163.90 189.86 163.99 C 189.84 159.64 189.84 155.29 189.86 150.94 Z" />
<path fill="#5ccae4" opacity="1.00" d=" M 154.41 163.47 C 157.43 161.32 162.58 162.24 163.80 166.06 C 164.85 169.73 164.99 173.93 163.48 177.50 C 161.36 182.21 153.02 181.24 152.30 175.99 C 151.71 171.90 150.98 166.53 154.41 163.47 Z" />
<path fill="#5ccae4" opacity="1.00" d=" M 227.58 178.02 C 228.38 173.56 233.82 174.27 237.17 173.77 C 237.06 175.44 237.01 177.12 236.74 178.77 C 234.84 182.03 227.43 183.15 227.58 178.02 Z" />
</g>
<g id="#7fdaf0ff">
<path fill="#7fdaf0" opacity="1.00" d=" M 258.21 35.93 L 258.23 34.84 C 263.04 36.56 266.75 40.08 270.65 43.23 C 303.81 70.61 344.38 89.18 387.04 95.24 C 399.25 97.39 411.68 97.57 424.01 98.69 C 428.75 99.10 434.04 98.08 438.28 100.75 C 441.61 103.59 441.50 108.16 440.56 112.06 C 439.39 133.03 438.20 154.02 436.86 175.00 C 435.78 198.54 433.74 222.18 427.83 245.06 C 417.47 288.41 396.75 329.06 368.66 363.60 C 364.03 369.61 358.43 374.75 353.35 380.37 C 340.03 394.41 324.93 406.57 310.45 419.36 C 295.13 432.71 279.79 446.04 264.48 459.40 C 262.67 461.12 260.24 461.76 257.87 462.25 C 257.86 438.21 257.75 414.17 257.97 390.13 C 266.52 389.89 274.39 383.40 275.72 374.86 C 277.76 364.32 268.58 353.81 257.93 353.95 C 257.88 347.21 257.87 340.48 257.96 333.75 C 277.52 333.77 296.60 342.15 310.48 355.81 C 315.30 351.16 319.95 346.34 324.76 341.69 C 308.68 325.66 286.91 315.51 264.25 313.80 C 262.16 313.53 260.07 313.18 257.99 312.85 C 257.90 306.43 257.92 300.02 258.00 293.60 C 285.31 293.82 312.45 304.01 332.90 322.15 C 334.82 323.86 336.62 325.79 338.91 327.02 C 344.07 322.96 348.25 317.81 353.01 313.30 C 328.07 288.40 293.35 273.56 258.03 273.52 C 257.98 266.87 257.98 260.21 258.02 253.56 C 298.57 253.56 338.49 270.58 367.12 299.19 C 371.86 294.51 376.59 289.81 381.25 285.04 C 349.04 252.58 303.80 233.47 258.03 233.46 C 258.08 216.48 257.85 199.49 258.23 182.52 C 267.30 189.25 280.44 188.66 289.81 182.86 C 289.80 176.55 289.83 170.25 289.81 163.94 C 284.60 163.88 279.39 163.88 274.18 163.94 C 274.23 166.21 274.28 168.48 274.34 170.75 C 276.40 170.87 278.46 170.98 280.52 171.09 C 280.51 173.50 280.52 175.91 280.56 178.33 C 276.89 179.26 272.91 180.36 269.24 178.80 C 260.60 175.94 258.35 164.12 262.87 156.95 C 265.37 152.56 270.84 150.70 275.66 151.42 C 278.93 151.99 281.89 153.62 285.11 154.39 C 287.53 153.48 288.62 150.65 290.24 148.76 C 281.30 141.19 267.42 140.80 258.03 147.77 C 258.18 110.49 258.05 73.21 258.21 35.93 M 407.41 142.04 C 407.47 147.28 407.41 152.51 407.51 157.75 C 402.90 155.04 396.61 154.68 392.36 158.26 C 386.55 163.27 385.54 172.07 387.92 179.03 C 389.23 183.07 392.47 187.01 397.01 187.22 C 401.04 187.86 404.75 185.92 407.82 183.53 C 408.54 184.61 408.85 186.10 409.99 186.84 C 412.22 187.13 414.48 186.99 416.72 186.97 C 416.67 171.97 416.69 156.97 416.71 141.98 C 413.61 141.93 410.51 141.95 407.41 142.04 M 295.75 155.90 C 295.87 163.24 295.43 170.61 295.95 177.95 C 296.12 182.76 300.14 187.15 305.05 187.24 C 308.89 187.84 312.40 185.98 315.49 183.95 C 315.97 184.97 316.45 185.99 316.94 187.01 C 319.33 187.00 321.72 186.99 324.11 186.98 C 324.12 176.63 324.13 166.27 324.11 155.91 C 320.99 155.91 317.87 155.91 314.75 155.92 C 314.50 163.39 315.20 170.92 314.44 178.36 C 312.55 180.38 309.57 180.85 306.98 180.17 C 304.66 178.56 304.76 175.53 304.73 173.03 C 304.77 167.34 304.78 161.65 304.78 155.96 C 301.77 155.93 298.76 155.91 295.75 155.90 M 330.73 160.22 C 332.19 161.84 333.20 165.33 335.97 164.33 C 339.21 163.49 342.49 161.52 345.92 162.79 C 347.60 164.06 347.70 166.33 348.28 168.18 C 342.83 168.59 336.94 169.06 332.43 172.51 C 328.00 175.85 328.59 183.83 333.64 186.29 C 338.56 188.45 344.24 187.05 348.48 184.02 C 350.04 187.37 353.55 187.19 356.73 187.03 C 356.65 180.33 356.80 173.63 356.71 166.94 C 356.83 162.16 353.57 157.40 348.88 156.18 C 342.59 154.66 335.80 156.23 330.73 160.22 M 363.76 155.87 C 363.73 166.24 363.73 176.62 363.75 187.00 C 366.76 186.99 369.78 186.98 372.80 186.97 C 372.94 180.67 372.45 174.36 372.96 168.08 C 374.24 163.80 379.10 164.15 382.65 164.03 C 383.60 161.39 383.93 158.60 384.37 155.85 C 382.04 155.85 379.53 155.29 377.35 156.37 C 375.45 157.37 374.10 159.11 372.64 160.63 C 372.09 159.15 371.64 157.63 370.92 156.24 C 368.55 155.84 366.14 155.91 363.76 155.87 Z" />
<path fill="#7fdaf0" opacity="1.00" d=" M 396.58 169.08 C 396.66 166.03 398.62 162.28 402.11 162.39 C 404.24 162.05 405.97 163.42 407.58 164.59 C 407.41 169.11 407.40 173.63 407.46 178.15 C 405.09 179.97 402.02 181.29 399.07 180.03 C 395.80 177.45 396.47 172.76 396.58 169.08 Z" />
<path fill="#7fdaf0" opacity="1.00" d=" M 340.12 175.09 C 342.54 173.82 345.41 174.11 348.06 173.77 C 347.62 175.70 348.57 178.39 346.65 179.69 C 344.82 180.97 342.33 182.38 340.10 181.25 C 337.37 180.51 337.88 176.19 340.12 175.09 Z" />
</g>
</svg>
