<svg width="403" height="419" xmlns="http://www.w3.org/2000/svg">

 <g>
  <title>background</title>
  <rect fill="none" id="canvas_background" height="421" width="405" y="-1" x="-1"/>
 </g>
 <g>
  <title>Layer 1</title>
  <g id="#00aae9ff">
   <path id="svg_1" d="m177.95,37.8c4.61,-3.84 9.48,-8.15 15.81,-8.43c0.03,3.67 0.29,7.34 0.96,10.95c-3.33,2.42 -6.63,4.86 -9.79,7.49c-12.65,10.33 -26.7,18.95 -41.68,25.47c-5.08,-4.28 -11.81,-4.45 -18.07,-5.39l-1.1,-0.16c19.6,-6.56 37.96,-16.74 53.87,-29.93z" fill="#fff"/>
  </g>
  <g id="#00c4efff">
   <path id="svg_2" d="m193.76,29.37c6.33,0.07 11.54,3.86 16.1,7.85c22.79,19.13 50.73,32.15 80.15,36.8c12.18,2.06 24.56,2.24 36.84,3.21c7.08,0.59 13.35,5.98 15.18,12.81c0.74,3.59 0.33,7.27 0.2,10.9c-0.86,13.41 -1.56,26.83 -2.46,40.24c-3.38,-1.78 -6.76,-3.57 -10.14,-5.35c0.96,-13.27 1.35,-26.58 2.65,-39.82c0.69,-3.63 -2.35,-7.28 -6.04,-7.29c-7.08,-0.39 -14.14,-1.02 -21.22,-1.37c-34.1,-2.44 -67.44,-14.9 -94.62,-35.68c-5.25,-3.75 -9.77,-8.59 -15.68,-11.35c-0.67,-3.61 -0.93,-7.28 -0.96,-10.95z" fill="#fff"/>
  </g>
  <g id="#00a2ddff">
   <path id="svg_3" d="m120.75,68.71c1.45,-0.39 2.91,-0.94 4.43,-0.82c6.26,0.94 12.99,1.11 18.07,5.39c-13.42,5.82 -27.55,10 -42.01,12.32c-12.32,2.2 -24.87,2.29 -37.3,3.45c-2.01,-0.02 -3.66,1.16 -5.09,2.44c0.26,-0.67 0.77,-2.03 1.02,-2.7c2.6,-0.65 5.18,-1.34 7.75,-2.11c-6.33,-1.13 -12.8,-0.4 -19.17,-1.15c3.13,-4.94 8.61,-8.42 14.53,-8.52c5.69,-0.07 11.32,-1.07 17.02,-1.08c13.8,-0.8 27.55,-3.06 40.75,-7.22z" fill="#fff"/>
   <path id="svg_4" d="m186.79,127.97c1.5,-2.99 4.22,-5.03 7.05,-6.66c0.16,2.9 0.33,5.81 0.19,8.72c-1.42,4.5 -1.38,9.22 0.27,13.65c0.02,2.68 -0.17,5.35 -0.36,8.02c-8.59,-4.1 -11.72,-15.59 -7.15,-23.73z" fill="#fff"/>
  </g>
  <g id="#009bd3ff">
   <path id="svg_5" d="m48.38,85.53l0.07,0c6.37,0.75 12.84,0.02 19.17,1.15c-2.57,0.77 -5.15,1.46 -7.75,2.11c-0.25,0.67 -0.76,2.03 -1.02,2.7c-1.34,3.69 -0.34,7.68 -0.18,11.47c0.8,12.21 1.53,24.42 2.15,36.64c-0.98,-3.71 -1.89,-7.43 -2.44,-11.23c-2.53,-0.41 -5.08,-1.1 -7.66,-0.78c-1.06,1.57 -1.65,3.38 -2.24,5.16l-0.29,0.88c-0.03,-9.17 -1.25,-18.28 -1.4,-27.45c-0.7,-6.88 -2.06,-14.32 1.59,-20.65z" fill="#fff"/>
  </g>
  <g id="#00c1e8ff">
   <path id="svg_6" d="m302.67,119c2.32,0 4.65,0 6.98,0.01c-0.02,11.33 0,22.67 -0.01,34c-1.88,-0.02 -3.76,-0.04 -5.63,-0.08c-0.23,-0.66 -0.68,-1.99 -0.91,-2.66c-2.15,1.44 -4.4,3.16 -7.14,2.99c-3.55,0.25 -6.61,-2.38 -7.71,-5.61c-1.96,-5.38 -1.51,-12.43 3.1,-16.35c3.21,-2.75 7.89,-2.38 11.37,-0.34c-0.08,-3.99 -0.06,-7.98 -0.05,-11.96m-6.8,16.83c-2.41,3.75 -2.07,9.14 0.89,12.52c2.18,-0.27 4.29,-0.88 5.99,-2.33c-0.12,-3.32 -0.11,-6.63 0,-9.95c-1.95,-1.52 -5.08,-2.64 -6.88,-0.24z" fill="#fff"/>
   <path id="svg_7" d="m329.63,135.83c3.38,1.78 6.76,3.57 10.14,5.35c-0.83,15.32 -1.51,30.7 -4.39,45.8c-3.06,-1.95 -6.31,-3.6 -9.74,-4.79c2.63,-15.32 3.07,-30.88 3.99,-46.36z" fill="#fff"/>
  </g>
  <g id="#0099d1ff">
   <path id="svg_8" d="m136.73,120c2.61,0 5.21,0.01 7.82,0.02c-0.03,8.99 -0.01,17.98 -0.02,26.98c4.14,0 8.28,0 12.42,0c0,2 0,4 0,6c-6.74,0 -13.48,0 -20.22,0c0,-11 0,-22 0,-33z" fill="#fff"/>
  </g>
  <g id="#009ed8ff">
   <path id="svg_9" d="m79.72,120.01c6.04,0.35 12.32,-0.92 18.16,0.97c4.68,1.52 7.36,7.03 5.73,11.66c-0.75,2.98 -3.37,4.82 -5.61,6.66c3.64,4.12 5.96,9.16 9,13.7c-2.95,-0.01 -5.91,0 -8.86,0.04c-2.78,-3.84 -4.76,-8.15 -7.35,-12.1c-0.81,0.01 -2.43,0.02 -3.24,0.03c-0.01,4 -0.01,8.01 0,12.02c-2.61,0.01 -5.22,0.01 -7.82,0.01c0,-11 0,-22 -0.01,-32.99m7.83,5.87c0,3.17 -0.01,6.34 0.01,9.51c3.1,0.14 6.4,-0.08 8.61,-2.55c-0.1,-1.49 -0.11,-2.99 -0.35,-4.46c-1.79,-2.81 -5.43,-2.29 -8.27,-2.5z" fill="#fff"/>
  </g>
  <g id="#00bee2ff">
   <path id="svg_10" d="m193.84,121.31c6.92,-2.58 15.12,-2.05 20.91,2.84c-1.13,1.52 -1.99,3.35 -3.61,4.41c-3.34,-1 -6.6,-2.89 -10.22,-2.31c-2.79,0.08 -4.9,2.07 -6.89,3.78c0.14,-2.91 -0.03,-5.82 -0.19,-8.72z" fill="#fff"/>
  </g>
  <g id="#0093c8ff">
   <path id="svg_11" d="m50.72,127.59c2.58,-0.32 5.13,0.37 7.66,0.78c0.55,3.8 1.46,7.52 2.44,11.23c0.52,5.11 0.43,10.26 0.93,15.37c0.97,21.52 5.08,42.87 11.94,63.29c-1.92,-2.64 -3.5,-5.5 -4.77,-8.49c-3.03,2.5 -5.82,5.36 -7.53,8.95l-0.24,0.42c-3.91,-13.91 -7.75,-27.9 -9.51,-42.28c-1.95,-14.62 -2.45,-29.39 -3.16,-44.11c0.59,-1.78 1.18,-3.59 2.24,-5.16z" fill="#fff"/>
  </g>
  <g id="#009cd4ff">
   <path id="svg_12" d="m116.31,129.5c4,-1.18 8.58,-0.16 11.75,2.53c5.93,5.14 5.04,16.25 -2.1,19.88c-4.92,2.36 -11.65,1.96 -15.45,-2.29c-5.65,-6.26 -3.14,-18.5 5.8,-20.12m-0.19,6.87c-2.07,3.22 -1.1,7.33 0.16,10.67c2.54,1.21 5.97,1.51 7.44,-1.45c0.83,-3.46 0.66,-7.21 -0.83,-10.47c-2.27,-0.27 -5.31,-1.12 -6.77,1.25z" fill="#fff"/>
  </g>
  <g id="#00a0dbff">
   <path id="svg_13" d="m161.95,132.76c4.19,-2.97 9.98,-5.15 14.93,-2.72c3.07,1.3 4.93,4.6 5.05,7.85c0.14,5.03 -0.03,10.07 0.04,15.11c-1.68,0 -3.35,0 -5.01,0c-0.34,-0.54 -1.02,-1.63 -1.35,-2.18c-3.28,2.14 -7.43,3.35 -11.21,1.81c-3.67,-1.7 -4.71,-7.13 -1.79,-9.98c3.21,-3.37 8.2,-3.65 12.56,-3.85c-0.41,-1.34 -0.83,-2.67 -1.26,-3.99c-3.31,-0.34 -6.43,0.87 -9.63,1.45c-0.78,-1.17 -1.56,-2.33 -2.33,-3.5m5.95,12.37c0.02,0.73 0.04,2.18 0.05,2.9c2.44,1.29 4.83,0.19 6.94,-1.16c-0.03,-1.37 -0.06,-2.73 -0.09,-4.1c-2.46,0.27 -4.83,0.99 -6.9,2.36z" fill="#fff"/>
  </g>
  <g id="#00bee3ff">
   <path id="svg_14" d="m245.16,132.68c3.48,-2.34 7.63,-3.86 11.88,-3.27c3.97,0.26 7.41,3.7 7.53,7.7c0.27,5.28 -0.01,10.58 0.09,15.87c-1.56,0.01 -3.12,0.02 -4.67,0.04c-0.32,-0.64 -0.96,-1.91 -1.28,-2.55c-3.19,2.25 -7.4,3.85 -11.17,2.04c-4.22,-1.72 -4.56,-8.38 -0.81,-10.78c3.37,-2.33 7.59,-2.45 11.49,-3c-0.4,-1.82 -0.89,-4.24 -3.24,-4.32c-2.66,0.2 -5.14,1.4 -7.79,1.75c-0.68,-1.16 -1.36,-2.32 -2.03,-3.48m5.57,13.53c0.1,4.13 5.27,2.55 7.19,0.61c-0.04,-1.34 -0.08,-2.67 -0.11,-4.01c-2.47,0.55 -6.52,0.12 -7.08,3.4z" fill="#fff"/>
  </g>
  <g id="#00c0e5ff">
   <path id="svg_15" d="m276.31,133.06c2.24,-2.81 5.55,-4.38 9.16,-3.55c-0.4,2.13 -0.82,4.26 -1.27,6.39c-2.47,-0.26 -5.89,-0.53 -7.06,2.24c-0.91,4.88 -0.17,9.91 -0.39,14.85c-2.33,0.01 -4.65,0.01 -6.97,0.01c-0.01,-7.81 0.01,-15.62 -0.02,-23.43c1.86,-0.01 3.73,-0.01 5.6,-0.01c0.32,1.16 0.64,2.33 0.95,3.5z" fill="#fff"/>
  </g>
  <g id="#00bde2ff">
   <path id="svg_16" d="m218.76,129.56c2.33,0 4.66,0 6.99,0c0.17,5.45 -0.44,10.96 0.32,16.38c0.8,3.14 5.65,2.47 6.95,0.07c0.37,-5.47 0.01,-10.97 0.11,-16.45c2.36,0 4.72,0 7.08,0c-0.02,7.81 0,15.61 -0.01,23.42c-1.77,0.02 -3.54,0.03 -5.3,0.06c-0.33,-0.61 -0.97,-1.82 -1.3,-2.42c-2.87,2.24 -6.83,3.61 -10.3,1.91c-2.96,-1.23 -4.4,-4.5 -4.47,-7.54c-0.2,-5.14 0.03,-10.29 -0.07,-15.43z" fill="#fff"/>
  </g>
  <g id="#00bce0ff">
   <path id="svg_17" d="m202.61,135.57c3.93,0.01 7.85,0 11.78,-0.02c-0.02,4.8 -0.01,9.61 -0.02,14.41c-6.12,3.68 -13.77,4.25 -20.43,1.74c0.19,-2.67 0.38,-5.34 0.36,-8.02c3.43,3.62 8.63,4.42 13.24,2.78c0.02,-1.8 0.04,-3.59 0.06,-5.38c-1.6,-0.08 -3.21,-0.17 -4.8,-0.26c-0.08,-1.75 -0.13,-3.5 -0.19,-5.25z" fill="#fff"/>
  </g>
  <g id="#00bcdfff">
   <path id="svg_18" d="m325.64,182.19c3.43,1.19 6.68,2.84 9.74,4.79c-4.45,24.32 -12.72,47.92 -24.49,69.66c-2.68,-2.24 -5.49,-4.33 -8.4,-6.27c11.35,-21.27 19.26,-44.39 23.15,-68.18z" fill="#fff"/>
  </g>
  <g id="#0099d0ff">
   <path id="svg_19" d="m144.66,201.24c15.66,-6.13 32.4,-9.71 49.25,-9.51c0,5.02 0.08,10.03 0.27,15.04c-11.57,0.25 -23.14,1.86 -34.22,5.26l-0.12,-0.12c-4.26,-4.52 -9.9,-7.25 -15.04,-10.59l-0.14,-0.08z" fill="#fff"/>
  </g>
  <g id="#00b9dbff">
   <path id="svg_20" d="m193.91,191.73c34.72,-0.13 69.1,14.11 93.58,38.72c-3.53,3.49 -7.03,7.01 -10.54,10.52c-21.71,-21.64 -52.04,-34.52 -82.77,-34.2c-0.19,-5.01 -0.27,-10.02 -0.27,-15.04z" fill="#fff"/>
  </g>
  <g id="#0093c7ff">
   <path id="svg_21" d="m100.84,230.49c12.5,-12.54 27.52,-22.58 43.96,-29.17c5.14,3.34 10.78,6.07 15.04,10.59c-18.11,5.84 -34.79,15.86 -48.32,29.25c-3.52,-3.6 -7.08,-7.16 -10.68,-10.67z" fill="#fff"/>
  </g>
  <g id="#008cbdff">
   <path id="svg_22" d="m61.39,218.72c1.71,-3.59 4.5,-6.45 7.53,-8.95c1.27,2.99 2.85,5.85 4.77,8.49c6.54,18.58 15.45,36.3 26.47,52.63c-3.06,2.53 -5.91,5.29 -8.54,8.25c-12.89,-18.55 -23.28,-38.91 -30.23,-60.42z" fill="#fff"/>
  </g>
  <g id="#0095cbff">
   <path id="svg_23" d="m155.48,229.35c12.19,-5 25.36,-7.7 38.55,-7.6c-0.04,5 -0.01,10.01 0.12,15.01c-7.87,0.25 -15.69,1.34 -23.32,3.31c-4.47,-4.45 -10.15,-7.27 -15.35,-10.72z" fill="#fff"/>
  </g>
  <g id="#00b6d7ff">
   <path id="svg_24" d="m194.03,221.75c26.79,0.05 53.32,10.91 72.21,29.95c-3.55,3.5 -7.07,7.03 -10.59,10.57c-16,-16.27 -38.69,-25.64 -61.5,-25.51c-0.13,-5 -0.16,-10.01 -0.12,-15.01z" fill="#fff"/>
  </g>
  <g id="#0091c5ff">
   <path id="svg_25" d="m122.08,251.62c9.63,-9.41 20.92,-17.14 33.4,-22.27c5.2,3.45 10.88,6.27 15.35,10.72c-14.23,4.17 -27.56,11.71 -37.91,22.4c-3.65,-3.58 -7.27,-7.2 -10.84,-10.85z" fill="#fff"/>
  </g>
  <g id="#00b5d6ff">
   <path id="svg_26" d="m275.38,290.42c10.36,-12.38 19.52,-25.79 27.11,-40.05c2.91,1.94 5.72,4.03 8.4,6.27c-12.84,23.62 -29.84,44.91 -49.82,62.88c-3,-1.9 -5.94,-3.89 -8.8,-5.98c8.22,-7.17 15.72,-15.11 23.11,-23.12z" fill="#fff"/>
  </g>
  <g id="#0090c4ff">
   <path id="svg_27" d="m143.35,272.93c13.17,-13.36 31.77,-21.2 50.55,-21.16c-0.03,4.99 0.04,9.99 0.28,14.99c-14.92,0.36 -29.52,6.33 -40.19,16.81c-3.56,-3.54 -7.1,-7.09 -10.64,-10.64z" fill="#fff"/>
  </g>
  <g id="#00b4d3ff">
   <path id="svg_28" d="m193.9,251.77c18.93,0.17 37.71,7.67 51.09,21.15c-3.5,3.5 -7.02,6.97 -10.47,10.51c-10.62,-10.54 -25.36,-16.69 -40.34,-16.67c-0.24,-5 -0.31,-10 -0.28,-14.99z" fill="#fff"/>
  </g>
  <g id="#0087b7ff">
   <path id="svg_29" d="m100.16,270.89c4.8,7.64 10.3,14.85 16.6,21.31c7.12,8.23 14.9,15.86 23.17,22.92c16.38,14.27 32.79,28.49 49.13,42.79c1.53,1.28 3.18,2.42 4.93,3.4c0.02,3.63 0.02,7.27 0,10.9c-4.94,-0.37 -9.49,-2.69 -13.01,-6.13c-18.68,-16.35 -37.52,-32.52 -56.16,-48.92c-12.38,-11.44 -23.47,-24.26 -33.2,-38.02c2.63,-2.96 5.48,-5.72 8.54,-8.25z" fill="#fff"/>
  </g>
  <g id="#008ec0ff">
   <path id="svg_30" d="m185.29,286.31c2.33,-2.36 5.49,-3.54 8.63,-4.38c0.06,9.11 0.11,18.21 0.06,27.31c-4.27,-0.62 -8.42,-2.97 -10.53,-6.83c-2.99,-5 -2.14,-11.89 1.84,-16.1z" fill="#fff"/>
  </g>
  <g id="#13b1cfff">
   <path id="svg_31" d="m193.92,281.93c5.12,0.3 10.46,2.53 12.89,7.32c3.4,5.78 1.36,13.82 -4.23,17.45c-2.46,1.89 -5.64,2.13 -8.6,2.54c0.05,-9.1 0,-18.2 -0.06,-27.31z" fill="#fff"/>
  </g>
  <g id="#17b0ceff">
   <path id="svg_32" d="m222.4,339.44c9.98,-8.6 19.86,-17.32 29.87,-25.9c2.86,2.09 5.8,4.08 8.8,5.98c-9.94,8.73 -20.02,17.32 -29.93,26.09c-3.15,-1.71 -6.1,-3.75 -8.74,-6.17z" fill="#fff"/>
  </g>
  <g id="#28acc9ff">
   <path id="svg_33" d="m199.96,358.96c7.47,-6.51 14.92,-13.06 22.44,-19.52c2.64,2.42 5.59,4.46 8.74,6.17c-8.51,7.35 -16.95,14.77 -25.46,22.12c-3.21,2.91 -7.5,3.98 -11.69,4.48c0.02,-3.63 0.02,-7.27 0,-10.9c2.12,-0.36 4.36,-0.79 5.97,-2.35z" fill="#fff"/>
  </g>
 </g>
</svg>