<?xml version="1.0" encoding="UTF-8" ?>
<!DOCTYPE svg PUBLIC "-//W3C//DTD SVG 1.1//EN" "http://www.w3.org/Graphics/SVG/1.1/DTD/svg11.dtd">
<svg width="403pt" height="419pt" viewBox="0 0 403 419" version="1.1" xmlns="http://www.w3.org/2000/svg">
<g id="#ffffffff">
</g>
<g id="#00aae9ff">
<path fill="#00aae9" opacity="1.00" d=" M 177.95 37.80 C 182.56 33.96 187.43 29.65 193.76 29.37 C 193.79 33.04 194.05 36.71 194.72 40.32 C 191.39 42.74 188.09 45.18 184.93 47.81 C 172.28 58.14 158.23 66.76 143.25 73.28 C 138.17 69.00 131.44 68.83 125.18 67.89 L 124.08 67.73 C 143.68 61.17 162.04 50.99 177.95 37.80 Z" />
</g>
<g id="#00c4efff">
<path fill="#00c4ef" opacity="1.00" d=" M 193.76 29.37 C 200.09 29.44 205.30 33.23 209.86 37.22 C 232.65 56.35 260.59 69.37 290.01 74.02 C 302.19 76.08 314.57 76.26 326.85 77.23 C 333.93 77.82 340.20 83.21 342.03 90.04 C 342.77 93.63 342.36 97.31 342.23 100.94 C 341.37 114.35 340.67 127.77 339.77 141.18 C 336.39 139.40 333.01 137.61 329.63 135.83 C 330.59 122.56 330.98 109.25 332.28 96.01 C 332.97 92.38 329.93 88.73 326.24 88.72 C 319.16 88.33 312.10 87.70 305.02 87.35 C 270.92 84.91 237.58 72.45 210.40 51.67 C 205.15 47.92 200.63 43.08 194.72 40.32 C 194.05 36.71 193.79 33.04 193.76 29.37 Z" />
</g>
<g id="#00a2ddff">
<path fill="#00a2dd" opacity="1.00" d=" M 120.75 68.71 C 122.20 68.32 123.66 67.77 125.18 67.89 C 131.44 68.83 138.17 69.00 143.25 73.28 C 129.83 79.10 115.70 83.28 101.24 85.60 C 88.92 87.80 76.37 87.89 63.94 89.05 C 61.93 89.03 60.28 90.21 58.85 91.49 C 59.11 90.82 59.62 89.46 59.87 88.79 C 62.47 88.14 65.05 87.45 67.62 86.68 C 61.29 85.55 54.82 86.28 48.45 85.53 C 51.58 80.59 57.06 77.11 62.98 77.01 C 68.67 76.94 74.30 75.94 80.00 75.93 C 93.80 75.13 107.55 72.87 120.75 68.71 Z" />
<path fill="#00a2dd" opacity="1.00" d=" M 186.79 127.97 C 188.29 124.98 191.01 122.94 193.84 121.31 C 194.00 124.21 194.17 127.12 194.03 130.03 C 192.61 134.53 192.65 139.25 194.30 143.68 C 194.32 146.36 194.13 149.03 193.94 151.70 C 185.35 147.60 182.22 136.11 186.79 127.97 Z" />
</g>
<g id="#009bd3ff">
<path fill="#009bd3" opacity="1.00" d=" M 48.38 85.53 L 48.45 85.53 C 54.82 86.28 61.29 85.55 67.62 86.68 C 65.05 87.45 62.47 88.14 59.87 88.79 C 59.62 89.46 59.11 90.82 58.85 91.49 C 57.51 95.18 58.51 99.17 58.67 102.96 C 59.47 115.17 60.20 127.38 60.82 139.60 C 59.84 135.89 58.93 132.17 58.38 128.37 C 55.85 127.96 53.30 127.27 50.72 127.59 C 49.66 129.16 49.07 130.97 48.48 132.75 L 48.19 133.63 C 48.16 124.46 46.94 115.35 46.79 106.18 C 46.09 99.30 44.73 91.86 48.38 85.53 Z" />
</g>
<g id="#00c1e8ff">
<path fill="#00c1e8" opacity="1.00" d=" M 302.67 119.00 C 304.99 119.00 307.32 119.00 309.65 119.01 C 309.63 130.34 309.65 141.68 309.64 153.01 C 307.76 152.99 305.88 152.97 304.01 152.93 C 303.78 152.27 303.33 150.94 303.10 150.27 C 300.95 151.71 298.70 153.43 295.96 153.26 C 292.41 153.51 289.35 150.88 288.25 147.65 C 286.29 142.27 286.74 135.22 291.35 131.30 C 294.56 128.55 299.24 128.92 302.72 130.96 C 302.64 126.97 302.66 122.98 302.67 119.00 M 295.87 135.83 C 293.46 139.58 293.80 144.97 296.76 148.35 C 298.94 148.08 301.05 147.47 302.75 146.02 C 302.63 142.70 302.64 139.39 302.75 136.07 C 300.80 134.55 297.67 133.43 295.87 135.83 Z" />
<path fill="#00c1e8" opacity="1.00" d=" M 329.63 135.83 C 333.01 137.61 336.39 139.40 339.77 141.18 C 338.94 156.50 338.26 171.88 335.38 186.98 C 332.32 185.03 329.07 183.38 325.64 182.19 C 328.27 166.87 328.71 151.31 329.63 135.83 Z" />
</g>
<g id="#0099d1ff">
<path fill="#0099d1" opacity="1.00" d=" M 82.73 120.00 C 85.34 120.00 87.94 120.01 90.55 120.02 C 90.52 129.01 90.54 138.00 90.53 147.00 C 94.67 147.00 98.81 147.00 102.95 147.00 C 102.95 149.00 102.95 151.00 102.95 153.00 C 96.21 153.00 89.47 153.00 82.73 153.00 C 82.73 142.00 82.73 131.00 82.73 120.00 Z" />
</g>
<g id="#009ed8ff">
<path fill="#009ed8" opacity="1.00" d=" M 131.72 120.01 C 137.76 120.36 144.04 119.09 149.88 120.98 C 154.56 122.50 157.24 128.01 155.61 132.64 C 154.86 135.62 152.24 137.46 150.00 139.30 C 153.64 143.42 155.96 148.46 159.00 153.00 C 156.05 152.99 153.09 153.00 150.14 153.04 C 147.36 149.20 145.38 144.89 142.79 140.94 C 141.98 140.95 140.36 140.96 139.55 140.97 C 139.54 144.97 139.54 148.98 139.55 152.99 C 136.94 153.00 134.33 153.00 131.73 153.00 C 131.73 142.00 131.73 131.00 131.72 120.01 M 139.55 125.88 C 139.55 129.05 139.54 132.22 139.56 135.39 C 142.66 135.53 145.96 135.31 148.17 132.84 C 148.07 131.35 148.06 129.85 147.82 128.38 C 146.03 125.57 142.39 126.09 139.55 125.88 Z" />
</g>
<g id="#00bee2ff">
<path fill="#00bee2" opacity="1.00" d=" M 193.84 121.31 C 200.76 118.73 208.96 119.26 214.75 124.15 C 213.62 125.67 212.76 127.50 211.14 128.56 C 207.80 127.56 204.54 125.67 200.92 126.25 C 198.13 126.33 196.02 128.32 194.03 130.03 C 194.17 127.12 194.00 124.21 193.84 121.31 Z" />
</g>
<g id="#0093c8ff">
<path fill="#0093c8" opacity="1.00" d=" M 50.72 127.59 C 53.30 127.27 55.85 127.96 58.38 128.37 C 58.93 132.17 59.84 135.89 60.82 139.60 C 61.34 144.71 61.25 149.86 61.75 154.97 C 62.72 176.49 66.83 197.84 73.69 218.26 C 71.77 215.62 70.19 212.76 68.92 209.77 C 65.89 212.27 63.10 215.13 61.39 218.72 L 61.15 219.14 C 57.24 205.23 53.40 191.24 51.64 176.86 C 49.69 162.24 49.19 147.47 48.48 132.75 C 49.07 130.97 49.66 129.16 50.72 127.59 Z" />
</g>
<g id="#009cd4ff">
<path fill="#009cd4" opacity="1.00" d=" M 112.31 129.50 C 116.31 128.32 120.89 129.34 124.06 132.03 C 129.99 137.17 129.10 148.28 121.96 151.91 C 117.04 154.27 110.31 153.87 106.51 149.62 C 100.86 143.36 103.37 131.12 112.31 129.50 M 112.12 136.37 C 110.05 139.59 111.02 143.70 112.28 147.04 C 114.82 148.25 118.25 148.55 119.72 145.59 C 120.55 142.13 120.38 138.38 118.89 135.12 C 116.62 134.85 113.58 134.00 112.12 136.37 Z" />
</g>
<g id="#00a0dbff">
<path fill="#00a0db" opacity="1.00" d=" M 161.95 132.76 C 166.14 129.79 171.93 127.61 176.88 130.04 C 179.95 131.34 181.81 134.64 181.93 137.89 C 182.07 142.92 181.90 147.96 181.97 153.00 C 180.29 153.00 178.62 153.00 176.96 153.00 C 176.62 152.46 175.94 151.37 175.61 150.82 C 172.33 152.96 168.18 154.17 164.40 152.63 C 160.73 150.93 159.69 145.50 162.61 142.65 C 165.82 139.28 170.81 139.00 175.17 138.80 C 174.76 137.46 174.34 136.13 173.91 134.81 C 170.60 134.47 167.48 135.68 164.28 136.26 C 163.50 135.09 162.72 133.93 161.95 132.76 M 167.90 145.13 C 167.92 145.86 167.94 147.31 167.95 148.03 C 170.39 149.32 172.78 148.22 174.89 146.87 C 174.86 145.50 174.83 144.14 174.80 142.77 C 172.34 143.04 169.97 143.76 167.90 145.13 Z" />
</g>
<g id="#00bee3ff">
<path fill="#00bee3" opacity="1.00" d=" M 245.16 132.68 C 248.64 130.34 252.79 128.82 257.04 129.41 C 261.01 129.67 264.45 133.11 264.57 137.11 C 264.84 142.39 264.56 147.69 264.66 152.98 C 263.10 152.99 261.54 153.00 259.99 153.02 C 259.67 152.38 259.03 151.11 258.71 150.47 C 255.52 152.72 251.31 154.32 247.54 152.51 C 243.32 150.79 242.98 144.13 246.73 141.73 C 250.10 139.40 254.32 139.28 258.22 138.73 C 257.82 136.91 257.33 134.49 254.98 134.41 C 252.32 134.61 249.84 135.81 247.19 136.16 C 246.51 135.00 245.83 133.84 245.16 132.68 M 250.73 146.21 C 250.83 150.34 256.00 148.76 257.92 146.82 C 257.88 145.48 257.84 144.15 257.81 142.81 C 255.34 143.36 251.29 142.93 250.73 146.21 Z" />
</g>
<g id="#00c0e5ff">
<path fill="#00c0e5" opacity="1.00" d=" M 276.31 133.06 C 278.55 130.25 281.86 128.68 285.47 129.51 C 285.07 131.64 284.65 133.77 284.20 135.90 C 281.73 135.64 278.31 135.37 277.14 138.14 C 276.23 143.02 276.97 148.05 276.75 152.99 C 274.42 153.00 272.10 153.00 269.78 153.00 C 269.77 145.19 269.79 137.38 269.76 129.57 C 271.62 129.56 273.49 129.56 275.36 129.56 C 275.68 130.72 276.00 131.89 276.31 133.06 Z" />
</g>
<g id="#00bde2ff">
<path fill="#00bde2" opacity="1.00" d=" M 218.76 129.56 C 221.09 129.56 223.42 129.56 225.75 129.56 C 225.92 135.01 225.31 140.52 226.07 145.94 C 226.87 149.08 231.72 148.41 233.02 146.01 C 233.39 140.54 233.03 135.04 233.13 129.56 C 235.49 129.56 237.85 129.56 240.21 129.56 C 240.19 137.37 240.21 145.17 240.20 152.98 C 238.43 153.00 236.66 153.01 234.90 153.04 C 234.57 152.43 233.93 151.22 233.60 150.62 C 230.73 152.86 226.77 154.23 223.30 152.53 C 220.34 151.30 218.90 148.03 218.83 144.99 C 218.63 139.85 218.86 134.70 218.76 129.56 Z" />
</g>
<g id="#00bce0ff">
<path fill="#00bce0" opacity="1.00" d=" M 202.61 135.57 C 206.54 135.58 210.46 135.57 214.39 135.55 C 214.37 140.35 214.38 145.16 214.37 149.96 C 208.25 153.64 200.60 154.21 193.94 151.70 C 194.13 149.03 194.32 146.36 194.30 143.68 C 197.73 147.30 202.93 148.10 207.54 146.46 C 207.56 144.66 207.58 142.87 207.60 141.08 C 206.00 141.00 204.39 140.91 202.80 140.82 C 202.72 139.07 202.67 137.32 202.61 135.57 Z" />
</g>
<g id="#00bcdfff">
<path fill="#00bcdf" opacity="1.00" d=" M 325.64 182.19 C 329.07 183.38 332.32 185.03 335.38 186.98 C 330.93 211.30 322.66 234.90 310.89 256.64 C 308.21 254.40 305.40 252.31 302.49 250.37 C 313.84 229.10 321.75 205.98 325.64 182.19 Z" />
</g>
<g id="#0099d0ff">
<path fill="#0099d0" opacity="1.00" d=" M 144.66 201.24 C 160.32 195.11 177.06 191.53 193.91 191.73 C 193.91 196.75 193.99 201.76 194.18 206.77 C 182.61 207.02 171.04 208.63 159.96 212.03 L 159.84 211.91 C 155.58 207.39 149.94 204.66 144.80 201.32 L 144.66 201.24 Z" />
</g>
<g id="#00b9dbff">
<path fill="#00b9db" opacity="1.00" d=" M 193.91 191.73 C 228.63 191.60 263.01 205.84 287.49 230.45 C 283.96 233.94 280.46 237.46 276.95 240.97 C 255.24 219.33 224.91 206.45 194.18 206.77 C 193.99 201.76 193.91 196.75 193.91 191.73 Z" />
</g>
<g id="#0093c7ff">
<path fill="#0093c7" opacity="1.00" d=" M 100.84 230.49 C 113.34 217.95 128.36 207.91 144.80 201.32 C 149.94 204.66 155.58 207.39 159.84 211.91 C 141.73 217.75 125.05 227.77 111.52 241.16 C 108.00 237.56 104.44 234.00 100.84 230.49 Z" />
</g>
<g id="#008cbdff">
<path fill="#008cbd" opacity="1.00" d=" M 61.39 218.72 C 63.10 215.13 65.89 212.27 68.92 209.77 C 70.19 212.76 71.77 215.62 73.69 218.26 C 80.23 236.84 89.14 254.56 100.16 270.89 C 97.10 273.42 94.25 276.18 91.62 279.14 C 78.73 260.59 68.34 240.23 61.39 218.72 Z" />
</g>
<g id="#0095cbff">
<path fill="#0095cb" opacity="1.00" d=" M 155.48 229.35 C 167.67 224.35 180.84 221.65 194.03 221.75 C 193.99 226.75 194.02 231.76 194.15 236.76 C 186.28 237.01 178.46 238.10 170.83 240.07 C 166.36 235.62 160.68 232.80 155.48 229.35 Z" />
</g>
<g id="#00b6d7ff">
<path fill="#00b6d7" opacity="1.00" d=" M 194.03 221.75 C 220.82 221.80 247.35 232.66 266.24 251.70 C 262.69 255.20 259.17 258.73 255.65 262.27 C 239.65 246.00 216.96 236.63 194.15 236.76 C 194.02 231.76 193.99 226.75 194.03 221.75 Z" />
</g>
<g id="#0091c5ff">
<path fill="#0091c5" opacity="1.00" d=" M 122.08 251.62 C 131.71 242.21 143.00 234.48 155.48 229.35 C 160.68 232.80 166.36 235.62 170.83 240.07 C 156.60 244.24 143.27 251.78 132.92 262.47 C 129.27 258.89 125.65 255.27 122.08 251.62 Z" />
</g>
<g id="#00b5d6ff">
<path fill="#00b5d6" opacity="1.00" d=" M 275.38 290.42 C 285.74 278.04 294.90 264.63 302.49 250.37 C 305.40 252.31 308.21 254.40 310.89 256.64 C 298.05 280.26 281.05 301.55 261.07 319.52 C 258.07 317.62 255.13 315.63 252.27 313.54 C 260.49 306.37 267.99 298.43 275.38 290.42 Z" />
</g>
<g id="#0090c4ff">
<path fill="#0090c4" opacity="1.00" d=" M 143.35 272.93 C 156.52 259.57 175.12 251.73 193.90 251.77 C 193.87 256.76 193.94 261.76 194.18 266.76 C 179.26 267.12 164.66 273.09 153.99 283.57 C 150.43 280.03 146.89 276.48 143.35 272.93 Z" />
</g>
<g id="#00b4d3ff">
<path fill="#00b4d3" opacity="1.00" d=" M 193.90 251.77 C 212.83 251.94 231.61 259.44 244.99 272.92 C 241.49 276.42 237.97 279.89 234.52 283.43 C 223.90 272.89 209.16 266.74 194.18 266.76 C 193.94 261.76 193.87 256.76 193.90 251.77 Z" />
</g>
<g id="#0087b7ff">
<path fill="#0087b7" opacity="1.00" d=" M 100.16 270.89 C 104.96 278.53 110.46 285.74 116.76 292.20 C 123.88 300.43 131.66 308.06 139.93 315.12 C 156.31 329.39 172.72 343.61 189.06 357.91 C 190.59 359.19 192.24 360.33 193.99 361.31 C 194.01 364.94 194.01 368.58 193.99 372.21 C 189.05 371.84 184.50 369.52 180.98 366.08 C 162.30 349.73 143.46 333.56 124.82 317.16 C 112.44 305.72 101.35 292.90 91.62 279.14 C 94.25 276.18 97.10 273.42 100.16 270.89 Z" />
</g>
<g id="#008ec0ff">
<path fill="#008ec0" opacity="1.00" d=" M 185.29 286.31 C 187.62 283.95 190.78 282.77 193.92 281.93 C 193.98 291.04 194.03 300.14 193.98 309.24 C 189.71 308.62 185.56 306.27 183.45 302.41 C 180.46 297.41 181.31 290.52 185.29 286.31 Z" />
</g>
<g id="#13b1cfff">
<path fill="#13b1cf" opacity="1.00" d=" M 193.92 281.93 C 199.04 282.23 204.38 284.46 206.81 289.25 C 210.21 295.03 208.17 303.07 202.58 306.70 C 200.12 308.59 196.94 308.83 193.98 309.24 C 194.03 300.14 193.98 291.04 193.92 281.93 Z" />
</g>
<g id="#17b0ceff">
<path fill="#17b0ce" opacity="1.00" d=" M 222.40 339.44 C 232.38 330.84 242.26 322.12 252.27 313.54 C 255.13 315.63 258.07 317.62 261.07 319.52 C 251.13 328.25 241.05 336.84 231.14 345.61 C 227.99 343.90 225.04 341.86 222.40 339.44 Z" />
</g>
<g id="#28acc9ff">
<path fill="#28acc9" opacity="1.00" d=" M 199.96 358.96 C 207.43 352.45 214.88 345.90 222.40 339.44 C 225.04 341.86 227.99 343.90 231.14 345.61 C 222.63 352.96 214.19 360.38 205.68 367.73 C 202.47 370.64 198.18 371.71 193.99 372.21 C 194.01 368.58 194.01 364.94 193.99 361.31 C 196.11 360.95 198.35 360.52 199.96 358.96 Z" />
</g>
</svg>
